PathFileType	4	(X/Y/Z)	/Users/itak/Documents/Research/Walk-IL/dataset/trc/00306_00010.trc
DataRate	CameraRate	NumFrames	NumMarkers	Units	OrigDataRate	OrigDataStartFrame	OrigNumFrames
100.000000	100.000000	4	56	mm	100.000000	0	425
Frame#	Time	RPSI			LPSI			L3			STRN			T10			C7			CLAV			RBAK			LBAK			LSHO			LUPA			LAEL			LAOL			LWPS			LFRA			LIFD			LHPS			LHTS			RSHO			RUPA			RAEL			RAOL			RWTS			RWPS			RFRA			RIFD			RBHD			LFHD			RFHD			LBHD			LHIP			RASI			LASI			LKNE			LTHI			LANK			LTIP			LTOE			LMT1			LMT5			LHEE			RKNE			RTHI			RANK			RTIP			RTOE			RMT1			RMT5			LWTS			RHTS			RHPS			RHEE			RHIP			*53			*54			*55			
		X1	Y1	Z1	X2	Y2	Z2	X3	Y3	Z3	X4	Y4	Z4	X5	Y5	Z5	X6	Y6	Z6	X7	Y7	Z7	X8	Y8	Z8	X9	Y9	Z9	X10	Y10	Z10	X11	Y11	Z11	X12	Y12	Z12	X13	Y13	Z13	X14	Y14	Z14	X15	Y15	Z15	X16	Y16	Z16	X17	Y17	Z17	X18	Y18	Z18	X19	Y19	Z19	X20	Y20	Z20	X21	Y21	Z21	X22	Y22	Z22	X23	Y23	Z23	X24	Y24	Z24	X25	Y25	Z25	X26	Y26	Z26	X27	Y27	Z27	X28	Y28	Z28	X29	Y29	Z29	X30	Y30	Z30	X31	Y31	Z31	X32	Y32	Z32	X33	Y33	Z33	X34	Y34	Z34	X35	Y35	Z35	X36	Y36	Z36	X37	Y37	Z37	X38	Y38	Z38	X39	Y39	Z39	X40	Y40	Z40	X41	Y41	Z41	X42	Y42	Z42	X43	Y43	Z43	X44	Y44	Z44	X45	Y45	Z45	X46	Y46	Z46	X47	Y47	Z47	X48	Y48	Z48	X49	Y49	Z49	X50	Y50	Z50	X51	Y51	Z51	X52	Y52	Z52	X53	Y53	Z53	X54	Y54	Z54	X55	Y55	Z55	X56	Y56	Z56	

1	0	-1325.904663085938	1019.168823242188	831.11962890625	-1310.431396484375	1011.113525390625	655.3790893554688	-1295.433837890625	1082.318481445312	740.8214721679688	-1035.825927734375	1249.9677734375	758.6119384765625	-1304.823852539062	1198.480590820312	737.1304321289062	-1247.7421875	1440.490966796875	725.7401733398438	-1093.087890625	1353.997436523438	748.3081665039062	-1309.26171875	1305.171752929688	795.6873779296875	-1253.366821289062	1405.10009765625	620.1263427734375	-1157.378173828125	1409.140014648438	576.6878051757812	-1181.272705078125	1291.450927734375	502.4447326660156	-1174.193725585938	1086.869750976562	490.2341613769531	-1244.719360351562	1074.81396484375	538.3158569335938	-1128.817016601562	852.4085083007812	490.1872863769531	-1159.629760742188	982.2608032226562	486.6142883300781	-1106.786865234375	681.5728759765625	558.6519775390625	-1127.378051757812	764.4243774414062	495.0743408203125	-1082.360229492188	766.6060180664062	544.0209350585938	-1196.421630859375	1416.629272460938	889.8914184570312	-1213.598388671875	1359.5712890625	954.1300659179688	-1246.260009765625	1100.696044921875	1015.571533203125	-1256.418823242188	1084.595458984375	921.9271240234375	-1127.272583007812	881.4738159179688	1010.489196777344	-1185.39501953125	877.815185546875	1069.823974609375	-1224.921752929688	1035.733642578125	1040.037475585938	-1110.4423828125	695.7831420898438	1025.877075195312	-1235.13330078125	1594.003540039062	797.2447509765625	-1056.896118164062	1646.153686523438	694.240966796875	-1067.554443359375	1647.04150390625	786.4757080078125	-1217.749145507812	1583.990600585938	652.7124633789062	-1228.969482421875	951.9046020507812	574.5291748046875	-1110.895629882812	963.6452026367188	883.3112182617188	-1098.863403320312	957.8577270507812	631.5641479492188	-1202.941162109375	488.616455078125	609.209716796875	-1198.083251953125	631.5467529296875	586.6839599609375	-1302.938110351562	51.62409973144531	626.3546752929688	-1262.679565429688	268.1623229980469	607.845458984375	-1094.315185546875	43.44378280639648	676.792724609375	-1161.593505859375	35.69967269897461	719.8054809570312	-1179.953247070312	47.09620666503906	608.7791137695312	-1346.195190429688	45.44973373413086	687.251953125	-1220.1748046875	489.2219543457031	916.3507690429688	-1186.076904296875	752.3219604492188	948.1671752929688	-1299.823486328125	48.06678009033203	887.3236083984375	-1218.885864257812	367.5448303222656	907.8740234375	-1096.569580078125	47.44425201416016	869.8707885742188	-1146.490966796875	47.3945198059082	820.8607177734375	-1200.496215820312	37.95190048217773	926.2628173828125	-1107.072265625	865.1910400390625	557.57275390625	-1094.697265625	769.9437255859375	1043.41357421875	-1154.861694335938	768.4425659179688	1081.854248046875	-1341.268798828125	44.50320053100586	828.4820556640625	-1238.571411132812	967.0154418945312	945.7991333007812	nan	nan	nan	nan	nan	nan	nan	nan	nan	
2	0.01	-1325.589599609375	1019.094360351562	831.3221435546875	-1310.011352539062	1011.115661621094	655.5941162109375	-1295.16748046875	1082.298950195312	741.0220947265625	-1035.638793945312	1249.937744140625	758.9520263671875	-1304.602661132812	1198.40625	737.4732666015625	-1247.480590820312	1440.422729492188	725.9896240234375	-1092.843627929688	1353.970458984375	748.6564331054688	-1309.06005859375	1305.121826171875	795.8914794921875	-1253.081909179688	1405.042114257812	620.4536743164062	-1157.1015625	1409.087768554688	577.0387573242188	-1180.945434570312	1291.410766601562	502.7708435058594	-1173.841796875	1086.790771484375	490.5101623535156	-1244.482543945312	1074.798950195312	538.5270385742188	-1128.4287109375	852.4258422851562	490.3648986816406	-1159.26953125	982.2349853515625	486.789306640625	-1106.271606445312	681.5529174804688	558.7395629882812	-1126.898193359375	764.4342041015625	495.1734008789062	-1081.903076171875	766.6155395507812	544.1044311523438	-1196.317260742188	1416.633666992188	890.1962890625	-1213.508544921875	1359.598999023438	954.3753662109375	-1246.396118164062	1100.8818359375	1016.140686035156	-1256.400634765625	1084.626586914062	922.58056640625	-1128.066528320312	881.3668823242188	1011.590515136719	-1186.146240234375	878.1204833984375	1070.976196289062	-1225.122924804688	1035.960327148438	1040.781005859375	-1111.1943359375	695.8110961914062	1027.262817382812	-1234.91943359375	1593.9443359375	797.5887451171875	-1056.685424804688	1646.128295898438	694.677001953125	-1067.3037109375	1646.927001953125	786.8912353515625	-1217.456420898438	1584.010131835938	653.0177612304688	-1228.518798828125	951.8137817382812	574.9412231445312	-1110.612915039062	963.6099853515625	883.6295166015625	-1098.494995117188	957.7196044921875	631.8720703125	-1202.87890625	488.6159362792969	609.3456420898438	-1197.984985351562	631.58203125	586.8489379882812	-1302.943969726562	51.62680816650391	626.3564453125	-1262.684448242188	268.1986694335938	607.9522705078125	-1094.318725585938	43.45132446289062	676.7913208007812	-1161.594604492188	35.68563842773438	719.8076782226562	-1179.958740234375	47.10096740722656	608.7921142578125	-1346.196044921875	45.43252182006836	687.2562866210938	-1220.210571289062	489.1947937011719	916.4882202148438	-1185.9287109375	752.2872314453125	948.38037109375	-1299.813110351562	48.06051635742188	887.3338012695312	-1218.896118164062	367.5425109863281	907.947021484375	-1096.563720703125	47.42169570922852	869.8403930664062	-1146.483276367188	47.46955490112305	820.9022827148438	-1200.490600585938	37.95188522338867	926.2568359375	-1106.74560546875	865.1554565429688	557.757568359375	-1095.429565429688	769.8844604492188	1044.729125976562	-1155.521362304688	768.5677490234375	1082.981323242188	-1341.278442382812	44.5095100402832	828.4823608398438	-1238.358154296875	966.979736328125	946.0159301757812	nan	nan	nan	nan	nan	nan	nan	nan	nan	
3	0.02	-1325.20556640625	1019.02001953125	831.5900268554688	-1309.485961914062	1011.13427734375	655.8644409179688	-1294.799560546875	1082.272094726562	741.3082275390625	-1035.376708984375	1249.899169921875	759.3931274414062	-1304.307861328125	1198.3193359375	737.903076171875	-1247.146728515625	1440.338989257812	726.3177490234375	-1092.544555664062	1353.928344726562	749.1067504882812	-1308.79638671875	1305.053100585938	796.1636962890625	-1252.712768554688	1404.962280273438	620.8600463867188	-1156.754638671875	1409.020751953125	577.4813232421875	-1180.529418945312	1291.354248046875	503.1738891601562	-1173.40185546875	1086.697875976562	490.8575439453125	-1244.148681640625	1074.756713867188	538.822998046875	-1127.9638671875	852.4298706054688	490.5895385742188	-1158.814697265625	982.19970703125	487.0213623046875	-1105.653198242188	681.5128173828125	558.8594970703125	-1126.289672851562	764.42822265625	495.3073425292969	-1081.3330078125	766.5964965820312	544.2283325195312	-1196.170043945312	1416.629760742188	890.579833984375	-1213.376831054688	1359.647338867188	954.7090454101562	-1246.557495117188	1101.113647460938	1016.864624023438	-1256.39306640625	1084.684326171875	923.3950805664062	-1129.043334960938	881.2123413085938	1012.942810058594	-1187.074829101562	878.4690551757812	1072.381225585938	-1225.38916015625	1036.241577148438	1041.702026367188	-1112.21630859375	695.8228759765625	1028.999267578125	-1234.63916015625	1593.8544921875	798.02099609375	-1056.411743164062	1646.095825195312	695.233642578125	-1066.986083984375	1646.794677734375	787.425537109375	-1217.081298828125	1584.024169921875	653.4041748046875	-1227.884643554688	951.624755859375	575.5225219726562	-1110.266479492188	963.5513305664062	884.035400390625	-1098.078369140625	957.554931640625	632.2557373046875	-1202.796142578125	488.6148986816406	609.521240234375	-1197.83984375	631.6220703125	587.0747680664062	-1302.95068359375	51.6293830871582	626.3615112304688	-1262.685913085938	268.2432556152344	608.0838623046875	-1094.3232421875	43.46158599853516	676.7924194335938	-1161.599487304688	35.66017150878906	719.8070678710938	-1179.964599609375	47.10469055175781	608.8079223632812	-1346.196166992188	45.40878677368164	687.2634887695312	-1220.235107421875	489.1623840332031	916.6614990234375	-1185.715576171875	752.2202758789062	948.6358032226562	-1299.804809570312	48.04994201660156	887.3414306640625	-1218.9052734375	367.5274047851562	908.0400390625	-1096.559204101562	47.39801025390625	869.8060913085938	-1146.477172851562	47.54734420776367	820.9462280273438	-1200.4853515625	37.95206451416016	926.248779296875	-1106.31005859375	865.1126708984375	558.0056762695312	-1096.39794921875	769.7830810546875	1046.360107421875	-1156.431884765625	768.6988525390625	1084.39111328125	-1341.292114257812	44.51748275756836	828.4812622070312	-1238.03466796875	966.9140014648438	946.2798461914062	nan	nan	nan	nan	nan	nan	nan	nan	nan	
4	0.03	-1324.772583007812	1018.961181640625	831.915283203125	-1308.881103515625	1011.17724609375	656.1775512695312	-1294.33447265625	1082.239379882812	741.67626953125	-1035.035400390625	1249.85400390625	759.9241943359375	-1303.944091796875	1198.224853515625	738.3997192382812	-1246.751708984375	1440.244140625	726.7183837890625	-1092.204833984375	1353.869506835938	749.6461181640625	-1308.476196289062	1304.966430664062	796.5018920898438	-1252.270385742188	1404.859985351562	621.3272094726562	-1156.34912109375	1408.940185546875	577.9990844726562	-1180.039184570312	1291.277587890625	503.638427734375	-1172.890747070312	1086.596801757812	491.2640380859375	-1243.718872070312	1074.682250976562	539.2005004882812	-1127.44677734375	852.411376953125	490.8560791015625	-1158.279663085938	982.1544189453125	487.3095092773438	-1104.976684570312	681.4486694335938	559.01513671875	-1125.579467773438	764.397216796875	495.4779052734375	-1080.677856445312	766.5374145507812	544.3988647460938	-1195.977905273438	1416.613891601562	891.0284423828125	-1213.200439453125	1359.717529296875	955.1300048828125	-1246.736694335938	1101.37890625	1017.715209960938	-1256.403198242188	1084.772094726562	924.326416015625	-1130.106079101562	881.0249633789062	1014.470275878906	-1188.138916015625	878.8314208984375	1073.962280273438	-1225.71533203125	1036.560913085938	1042.755493164062	-1113.497680664062	695.805419921875	1031.009643554688	-1234.298217773438	1593.72998046875	798.5260620117188	-1056.080688476562	1646.05615234375	695.8916015625	-1066.61376953125	1646.654418945312	788.0625610351562	-1216.635131835938	1584.025390625	653.864013671875	-1227.087646484375	951.3389282226562	576.2533569335938	-1109.871459960938	963.470947265625	884.5145263671875	-1097.632080078125	957.3779296875	632.7052001953125	-1202.693603515625	488.6126098632812	609.73583984375	-1197.639282226562	631.6622924804688	587.36376953125	-1302.9580078125	51.63164138793945	626.370361328125	-1262.682495117188	268.2941589355469	608.2342529296875	-1094.329345703125	43.47441101074219	676.79638671875	-1161.608276367188	35.62227630615234	719.8009643554688	-1179.970336914062	47.10684204101562	608.8253173828125	-1346.195068359375	45.37981796264648	687.27392578125	-1220.237548828125	489.1263427734375	916.864501953125	-1185.439453125	752.1160278320312	948.9232177734375	-1299.801025390625	48.03425216674805	887.3443603515625	-1218.91162109375	367.4959106445312	908.1510620117188	-1096.557250976562	47.37971496582031	869.7750854492188	-1146.472045898438	47.61902618408203	820.9859619140625	-1200.482177734375	37.95264053344727	926.2393188476562	-1105.774291992188	865.0619506835938	558.3131713867188	-1097.586303710938	769.6329345703125	1048.236083984375	-1157.589599609375	768.827392578125	1086.024536132812	-1341.309814453125	44.52637481689453	828.478515625	-1237.59423828125	966.8124389648438	946.578125	nan	nan	nan	nan	nan	nan	nan	nan	nan	
